<?xml version="1.0" encoding="UTF-8" standalone="no"?>
<!DOCTYPE svg PUBLIC "-//W3C//DTD SVG 1.1//EN" "http://www.w3.org/Graphics/SVG/1.1/DTD/svg11.dtd">
<svg width="100%" height="100%" viewBox="0 0 2224 1668" version="1.1" xmlns="http://www.w3.org/2000/svg" xmlns:xlink="http://www.w3.org/1999/xlink" xml:space="preserve" xmlns:serif="http://www.serif.com/" style="fill-rule:evenodd;clip-rule:evenodd;stroke-linecap:round;stroke-linejoin:round;stroke-miterlimit:1.5;">
    <g>
        <g transform="matrix(-2.16105,-1.21953,1.4151,-2.50761,2261,4594.08)">
            <path d="M1403.32,740.213C1339.03,684.901 1250.19,653.631 1157.33,653.631C969.185,653.631 816.438,779.715 816.438,935.016C816.438,1090.32 969.185,1216.4 1157.33,1216.4C1345.59,1216.4 1498.21,1090.42 1498.21,935.016L1497.58,935.016C1497.58,1090.13 1345.24,1215.87 1157.33,1215.87C969.538,1215.87 817.078,1090.03 817.078,935.016C817.078,780.006 969.538,654.159 1157.33,654.159C1250.01,654.159 1338.69,685.37 1402.85,740.578L1403.32,740.213Z" style="fill:rgb(249,129,58);stroke:rgb(249,129,58);stroke-width:4.65px;"/>
        </g>
        <g transform="matrix(0.944641,-0.328105,0.328105,0.944641,-949.162,-17.7321)">
            <g transform="matrix(0.173749,-0.98479,0.98479,0.173749,-648.745,1929.67)">
                <path d="M851.119,1301.11L840.713,1311.09L840.853,1321.43L835.228,1321.36L825.244,1331.2L825.244,1351.73L855.057,1351.45L862.932,1343.58L862.932,1301.18L851.119,1301.11ZM861.033,1303.21L860.963,1341.68L837.057,1341.61L837.057,1323.46L845.353,1323.46L845.353,1333.66L852.596,1333.59L852.525,1303.14L861.033,1303.21Z" style="fill:rgb(249,129,58);fill-rule:nonzero;stroke:rgb(249,129,58);stroke-width:1px;stroke-linecap:butt;stroke-miterlimit:2;"/>
            </g>
            <g transform="matrix(0.218041,-0.97594,0.97594,0.218041,-632.992,1840.42)">
                <path d="M831.287,1286.53L831.427,1315.29L860.396,1315.22L869.115,1306.78L869.115,1264.95L853.224,1264.88L831.287,1286.53ZM853.505,1266.99L867.005,1266.99L867.005,1305.59L843.099,1305.94L843.099,1277.39L853.505,1266.99ZM851.537,1281.05L851.537,1297.43L858.568,1297.43L858.568,1274.3L851.537,1281.05Z" style="fill:rgb(249,129,58);fill-rule:nonzero;stroke:rgb(249,129,58);stroke-width:1px;stroke-linecap:butt;stroke-miterlimit:2;"/>
            </g>
            <g transform="matrix(0.260341,-0.965517,0.965517,0.260341,-614.169,1757.48)">
                <path d="M860.512,1229.25L839.137,1250.9L839.137,1267.43L842.793,1267.36L842.793,1267.5L839.137,1271.58L839.137,1279.52L866.559,1279.59L874.575,1271.15L874.575,1245.63L869.934,1245.56L874.575,1241.06L874.575,1229.32L860.512,1229.25ZM850.95,1241.62L861.497,1231.22L872.536,1231.22L872.465,1239.23L865.575,1239.23L859.247,1245.56L859.247,1247.6L872.465,1247.67L872.465,1269.75L851.301,1269.61L851.301,1261.87L864.098,1261.59L864.098,1255.69L850.95,1255.69L850.95,1241.62Z" style="fill:rgb(249,129,58);fill-rule:nonzero;stroke:rgb(249,129,58);stroke-width:1px;stroke-linecap:butt;stroke-miterlimit:2;"/>
            </g>
            <g transform="matrix(0.303418,-0.952857,0.952857,0.303418,-596.716,1677.24)">
                <path d="M848.441,1206.53L848.441,1246.67L861.659,1246.74L866.862,1242.24L867.003,1242.24L867.073,1246.74L878.534,1246.74L887.394,1238.59L887.394,1196.47L875.019,1196.4L870.8,1200.48L870.659,1200.48L870.378,1196.4L858.284,1196.4L848.441,1206.53ZM868.62,1198.37L868.691,1213.63L876.777,1213.7L876.847,1198.3L885.355,1198.37L885.284,1236.76L876.847,1236.76L876.987,1221.57L868.902,1221.64L868.691,1236.83L860.112,1236.83L860.112,1198.44L868.62,1198.37Z" style="fill:rgb(249,129,58);fill-rule:nonzero;stroke:rgb(249,129,58);stroke-width:1px;stroke-linecap:butt;stroke-miterlimit:2;"/>
            </g>
            <g transform="matrix(0.346915,-0.937897,0.937897,0.346915,-573.294,1597.44)">
                <path d="M881.771,1160.03C873.579,1160.1 869.431,1160.13 869.396,1160.17L859.693,1169.87L859.693,1210.3L889.364,1210.23L897.38,1202.36L897.38,1160.1L885.568,1160.03L881.911,1163.12L881.771,1160.03ZM879.872,1162L879.802,1192.44L886.904,1192.51L886.904,1162L895.271,1162L895.271,1200.6L871.364,1200.6L871.505,1162L879.872,1162Z" style="fill:rgb(249,129,58);fill-rule:nonzero;stroke:rgb(249,129,58);stroke-width:1px;stroke-linecap:butt;stroke-miterlimit:2;"/>
            </g>
            <g transform="matrix(0.386746,-0.922186,0.922186,0.386746,-549.223,1526.45)">
                <path d="M889.862,1125.65L872.459,1142.81L872.459,1176.24L882.198,1176.17L886.17,1172.34L886.311,1176.1L897.069,1176.17L906.42,1167.1L906.42,1125.58L889.862,1125.65ZM891.69,1127.83L904.381,1127.83L904.311,1165.38L896.084,1165.38L896.084,1155.04L889.264,1154.97L889.405,1165.38L881.284,1165.38L881.354,1138.17L891.69,1127.83ZM889.862,1142.14L889.862,1146.89L895.803,1146.82L895.944,1136.34L889.862,1142.14Z" style="fill:rgb(249,129,58);fill-rule:nonzero;stroke:rgb(249,129,58);stroke-width:1px;stroke-linecap:butt;stroke-miterlimit:2;"/>
            </g>
            <g transform="matrix(0.444125,-0.895965,0.895965,0.444125,-509.052,1427.59)">
                <path d="M905.751,1073.56L895.626,1083.4L895.626,1124.11L908.986,1124.04L917.704,1115.75L917.704,1073.56L905.751,1073.56ZM915.736,1114.06L907.369,1114.2L907.509,1075.81L915.454,1075.67L915.736,1114.06Z" style="fill:rgb(249,129,58);fill-rule:nonzero;stroke:rgb(249,129,58);stroke-width:1px;stroke-linecap:butt;stroke-miterlimit:2;"/>
            </g>
            <g transform="matrix(0.477864,-0.878434,0.878434,0.477864,-497.868,1372.12)">
                <path d="M904.577,1064.64L904.717,1104.79L916.811,1104.86L924.967,1097.83L925.108,1104.93L937.624,1104.86L946.764,1096.7L946.764,1054.45L935.092,1054.38L930.17,1059.16L930.03,1059.16L924.686,1054.38L914.139,1054.38L904.577,1064.64ZM924.124,1056.35L930.03,1061.97L930.17,1061.97L935.795,1056.49L944.655,1056.49L944.655,1095.09L936.217,1095.02L936.288,1068.16L930.17,1073.92L930.03,1073.92L923.772,1068.16L923.842,1094.74L915.335,1094.67L915.335,1056.49L924.124,1056.35Z" style="fill:rgb(249,129,58);fill-rule:nonzero;stroke:rgb(249,129,58);stroke-width:1px;stroke-linecap:butt;stroke-miterlimit:2;"/>
            </g>
            <g transform="matrix(0.521151,-0.853465,0.853465,0.521151,-469.434,1301.17)">
                <path d="M924.13,1028.71L924.271,1068.86L936.364,1068.92L944.521,1061.89L944.661,1069L957.177,1068.92L966.317,1060.77L966.317,1018.51L954.646,1018.44L949.724,1023.22L949.583,1023.22L944.239,1018.44L933.692,1018.44L924.13,1028.71ZM943.677,1020.41L949.583,1026.04L949.724,1026.04L955.349,1020.55L964.208,1020.55L964.208,1059.15L955.771,1059.08L955.841,1032.22L949.724,1037.99L949.583,1037.99L943.325,1032.22L943.396,1058.8L934.888,1058.73L934.888,1020.55L943.677,1020.41Z" style="fill:rgb(249,129,58);fill-rule:nonzero;stroke:rgb(249,129,58);stroke-width:1px;stroke-linecap:butt;stroke-miterlimit:2;"/>
            </g>
            <g transform="matrix(0.560872,-0.827903,0.827903,0.560872,-440.5,1237.44)">
                <path d="M945.544,1005.28L945.684,1034.04L974.653,1033.97L983.372,1025.53L983.372,983.693L967.481,983.623L945.544,1005.28ZM967.763,985.732L981.263,985.732L981.263,1024.33L957.356,1024.68L957.356,996.138L967.763,985.732ZM965.794,999.795L965.794,1016.18L972.825,1016.18L972.825,993.045L965.794,999.795Z" style="fill:rgb(249,129,58);fill-rule:nonzero;stroke:rgb(249,129,58);stroke-width:1px;stroke-linecap:butt;stroke-miterlimit:2;"/>
            </g>
            <g transform="matrix(0.597204,-0.802089,0.802089,0.597204,-415.729,1179.69)">
                <path d="M966.348,963.549L966.348,1003.77L979.285,1003.77L982.942,1000.96L982.942,1003.84L994.754,1003.77L1004.03,995.753L1004.03,979.44L999.535,974.378L1004.03,970.018L1004,953.389L976.332,953.424L966.348,963.549ZM1002,955.393L1002.07,968.753L996.582,974.518L1002.07,980.424L1002.07,993.854L993.629,993.643L993.629,981.971L986.387,974.94L986.457,993.995L978.16,994.1L977.809,955.393L1002,955.393ZM993.629,963.479L986.528,963.409L986.598,973.253L993.629,967.628L993.629,963.479Z" style="fill:rgb(249,129,58);fill-rule:nonzero;stroke:rgb(249,129,58);stroke-width:1px;stroke-linecap:butt;stroke-miterlimit:2;"/>
            </g>
            <g transform="matrix(0.631493,-0.775382,0.775382,0.631493,-391.045,1125.64)">
                <path d="M988.367,933.196L988.367,973.802C988.507,974.083 988.648,974.224 988.788,974.224L1015.33,974.224L1024.26,965.294L1024.26,935.2L1012.91,923.845L997.859,923.845L988.367,933.196ZM999.23,925.849L1012.06,925.849L1022.29,936.888L1022.29,963.501L999.37,963.431L999.23,925.849ZM1007.74,955.485L1013.93,955.485L1014.14,939.876L1007.74,934.075L1007.74,955.485Z" style="fill:rgb(249,129,58);fill-rule:nonzero;stroke:rgb(249,129,58);stroke-width:1px;stroke-linecap:butt;stroke-miterlimit:2;"/>
            </g>
            <g transform="matrix(0.657207,-0.75371,0.75371,0.657207,-367.519,1086.56)">
                <path d="M1020.55,896.835L1010.42,906.678L1010.42,947.389L1023.78,947.319L1032.5,939.022L1032.5,896.835L1020.55,896.835ZM1030.53,937.335L1022.16,937.475L1022.3,899.085L1030.25,898.944L1030.53,937.335Z" style="fill:rgb(249,129,58);fill-rule:nonzero;stroke:rgb(249,129,58);stroke-width:1px;stroke-linecap:butt;stroke-miterlimit:2;"/>
            </g>
            <g transform="matrix(0.683493,-0.729957,0.729957,0.683493,-355.367,1042.69)">
                <path d="M1023.99,891.199L1023.99,931.066L1037.07,931.136L1040.86,928.043L1042.97,931.136L1053.66,931.136L1062.94,922.98L1062.8,880.652L1051.13,880.652L1047.33,883.886L1045.08,880.652L1034.11,880.652L1023.99,891.199ZM1043.39,882.621L1052.11,899.214L1052.18,882.761L1061.04,882.761L1060.97,921.222L1053.94,921.293L1044.52,903.996L1044.24,903.996L1044.31,921.293L1035.8,921.363L1035.8,882.761L1043.39,882.621Z" style="fill:rgb(249,129,58);fill-rule:nonzero;stroke:rgb(249,129,58);stroke-width:1px;stroke-linecap:butt;stroke-miterlimit:2;"/>
            </g>
            <g transform="matrix(0.715286,-0.698832,0.698832,0.715286,-332.477,991.347)">
                <path d="M1049.69,875.019L1049.83,903.776L1078.8,903.706L1087.52,895.269L1087.52,853.433L1071.63,853.362L1049.69,875.019ZM1071.91,855.472L1085.41,855.472L1085.41,894.073L1061.5,894.425L1061.5,865.878L1071.91,855.472ZM1069.94,869.534L1069.94,885.917L1076.97,885.917L1076.97,862.784L1069.94,869.534Z" style="fill:rgb(249,129,58);fill-rule:nonzero;stroke:rgb(249,129,58);stroke-width:1px;stroke-linecap:butt;stroke-miterlimit:2;"/>
            </g>
        </g>
    </g>
    <g transform="matrix(0.541727,0.602835,-0.617831,0.555203,1031.66,-272.53)">
        <g transform="matrix(-2.16105,-1.21953,1.4151,-2.50761,2261,4594.08)">
            <path d="M1458.84,803.727C1399.84,711.408 1283.78,653.631 1157.33,653.631C969.185,653.631 816.438,779.715 816.438,935.016C816.438,1090.32 969.185,1216.4 1157.33,1216.4C1345.59,1216.4 1498.21,1090.42 1498.21,935.016L1497.58,935.016C1497.58,1090.13 1345.24,1215.87 1157.33,1215.87C969.538,1215.87 817.078,1090.03 817.078,935.016C817.078,780.006 969.538,654.159 1157.33,654.159C1283.54,654.159 1399.38,711.827 1458.27,803.973L1458.84,803.727Z" style="fill:rgb(249,129,58);stroke:rgb(249,129,58);stroke-width:5.6px;"/>
        </g>
        <g transform="matrix(1.2296,-0.099727,0.0986825,1.20004,-872.882,-619.421)">
            <g transform="matrix(0.167196,-0.985924,0.985924,0.167196,-533.344,1841.47)">
                <path d="M843.883,1186.1L822.508,1207.75L822.508,1224.28L826.164,1224.2L826.164,1224.35L822.508,1228.42L822.508,1236.37L849.93,1236.44L857.945,1228L857.945,1202.48L853.305,1202.41L857.945,1197.91L857.945,1186.17L843.883,1186.1ZM834.32,1198.47L844.867,1188.06L855.906,1188.06L855.836,1196.08L848.945,1196.08L842.617,1202.41L842.617,1204.45L855.836,1204.52L855.836,1226.6L834.672,1226.45L834.672,1218.72L847.469,1218.44L847.469,1212.53L834.32,1212.53L834.32,1198.47Z" style="fill:rgb(249,129,58);fill-rule:nonzero;stroke:rgb(249,129,58);stroke-width:1px;stroke-linecap:butt;stroke-miterlimit:2;"/>
            </g>
            <g transform="matrix(0.217933,-0.975964,0.975964,0.217933,-525.507,1749.76)">
                <path d="M828.332,1174.09L828.472,1202.85L857.441,1202.78L866.16,1194.34L866.16,1152.5L850.269,1152.43L828.332,1174.09ZM850.55,1154.54L864.05,1154.54L864.05,1193.14L840.144,1193.5L840.144,1164.95L850.55,1154.54ZM848.582,1168.61L848.582,1184.99L855.613,1184.99L855.613,1161.86L848.582,1168.61Z" style="fill:rgb(249,129,58);fill-rule:nonzero;stroke:rgb(249,129,58);stroke-width:1px;stroke-linecap:butt;stroke-miterlimit:2;"/>
            </g>
            <g transform="matrix(0.269514,-0.962996,0.962996,0.269514,-512.62,1658.64)">
                <path d="M836.626,1126.57L836.626,1167.28L851.005,1167.21L858.88,1158.63L858.88,1151.92L861.271,1151.85L869.005,1144.11L869.005,1133.29L873.646,1128.05L873.646,1116.87L846.47,1116.94L836.626,1126.57ZM848.58,1118.91L871.537,1118.91L871.537,1126.71L856.841,1126.64L856.771,1134.06L867.107,1134.13L867.037,1142.01L856.912,1142.01L856.771,1157.44L848.228,1157.51L848.58,1118.91Z" style="fill:rgb(249,129,58);fill-rule:nonzero;stroke:rgb(249,129,58);stroke-width:1px;stroke-linecap:butt;stroke-miterlimit:2;"/>
            </g>
            <g transform="matrix(0.314984,-0.949097,0.949097,0.314984,-498.841,1580.73)">
                <path d="M855.056,1085.45L844.931,1095.3L845.037,1107.21L852.666,1107.25L852.666,1135.87L865.603,1135.94L880.299,1122.26L880.193,1103.03L882.724,1103.14L882.619,1085.52L855.056,1085.45ZM856.533,1087.42L880.58,1087.42L880.509,1095.44L872.775,1095.58L872.775,1126.02L864.408,1125.95C864.443,1105.81 864.478,1095.68 864.478,1095.65L856.533,1095.44L856.533,1087.42Z" style="fill:rgb(249,129,58);fill-rule:nonzero;stroke:rgb(249,129,58);stroke-width:1px;stroke-linecap:butt;stroke-miterlimit:2;"/>
            </g>
            <g transform="matrix(0.372967,-0.927845,0.927845,0.372967,-484.615,1485.69)">
                <path d="M864.57,1051.05L854.445,1060.75L854.445,1087.89L867.945,1101.39L883.836,1101.39L886.367,1099.14L888.969,1101.39L899.516,1101.39L907.461,1093.38L907.461,1050.98L895.648,1051.05L891.992,1054.14L891.992,1051.12L879.898,1051.05L876.805,1054.14L876.664,1051.05L864.57,1051.05ZM865.836,1053.02L874.766,1053.02L874.906,1076.5L881.305,1083.25L881.727,1083.25L881.727,1052.95L889.602,1053.02L889.883,1076.08L896.633,1083.25L897.125,1083.25L897.055,1052.95L905.422,1053.02L905.492,1091.41L893.961,1091.55L890.094,1088.32L890.164,1091.48L877.93,1091.55L866.117,1079.46L865.836,1053.02Z" style="fill:rgb(249,129,58);fill-rule:nonzero;stroke:rgb(249,129,58);stroke-width:1px;stroke-linecap:butt;stroke-miterlimit:2;"/>
            </g>
            <g transform="matrix(0.429683,-0.90298,0.90298,0.429683,-453.234,1392.6)">
                <path d="M892.604,1004.59L875.202,1021.74L875.202,1055.17L884.94,1055.1L888.913,1051.27L889.054,1055.03L899.811,1055.1L909.163,1046.03L909.163,1004.51L892.604,1004.59ZM894.433,1006.76L907.124,1006.76L907.054,1044.31L898.827,1044.31L898.827,1033.97L892.007,1033.9L892.147,1044.31L884.026,1044.31L884.097,1017.1L894.433,1006.76ZM892.604,1021.07L892.604,1025.82L898.546,1025.75L898.686,1015.27L892.604,1021.07Z" style="fill:rgb(249,129,58);fill-rule:nonzero;stroke:rgb(249,129,58);stroke-width:1px;stroke-linecap:butt;stroke-miterlimit:2;"/>
            </g>
            <g transform="matrix(0.475366,-0.879788,0.879788,0.475366,-435.234,1320.89)">
                <path d="M889.572,985.162L889.572,1025.38L902.51,1025.38L906.166,1022.57L906.166,1025.45L917.978,1025.38L927.26,1017.37L927.26,1001.05L922.76,995.99L927.26,991.631L927.225,975.002L899.557,975.037L889.572,985.162ZM925.221,977.006L925.291,990.365L919.807,996.131L925.291,1002.04L925.291,1015.47L916.853,1015.26L916.853,1003.58L909.611,996.553L909.682,1015.61L901.385,1015.71L901.033,977.006L925.221,977.006ZM916.853,985.092L909.752,985.021L909.822,994.865L916.853,989.24L916.853,985.092Z" style="fill:rgb(249,129,58);fill-rule:nonzero;stroke:rgb(249,129,58);stroke-width:1px;stroke-linecap:butt;stroke-miterlimit:2;"/>
            </g>
            <g transform="matrix(0.52105,-0.853526,0.853526,0.52105,-413.01,1250.12)">
                <path d="M906.694,952.425L906.694,992.785C906.694,992.96 906.799,993.066 906.975,993.066L935.065,993.066L943.678,984.593L943.678,973.097L936.19,973.027L939.143,969.792L939.143,958.648L943.678,954.253L943.748,942.687L916.432,942.687L906.694,952.425ZM941.744,944.656L941.674,952.496L927.014,952.425L926.873,959.843L937.244,959.913L937.174,967.788L926.873,967.894L926.873,974.714L941.674,974.785L941.674,983.187L918.401,983.257L918.541,944.656L941.744,944.656Z" style="fill:rgb(249,129,58);fill-rule:nonzero;stroke:rgb(249,129,58);stroke-width:1px;stroke-linecap:butt;stroke-miterlimit:2;"/>
            </g>
        </g>
    </g>
    <g transform="matrix(-0.313899,0.558418,-0.572309,-0.321707,1915.09,514.95)">
        <g transform="matrix(-2.16105,-1.21953,1.4151,-2.50761,2261,4594.08)">
            <path d="M1450.48,791.409C1389.07,705.995 1277.65,653.631 1157.33,653.631C969.185,653.631 816.438,779.715 816.438,935.016C816.438,1090.32 969.185,1216.4 1157.33,1216.4C1345.59,1216.4 1498.21,1090.42 1498.21,935.016L1497.58,935.016C1497.58,1090.13 1345.24,1215.87 1157.33,1215.87C969.538,1215.87 817.078,1090.03 817.078,935.016C817.078,780.006 969.538,654.159 1157.33,654.159C1277.43,654.159 1388.63,706.424 1449.93,791.679L1450.48,791.409Z" style="fill:rgb(249,129,58);stroke:rgb(249,129,58);stroke-width:7.09px;"/>
        </g>
        <g transform="matrix(1.55017,-0.179491,0.179511,1.51306,-1213.98,-727.693)">
            <g transform="matrix(0.15915,-0.987254,0.987254,0.15915,-408.884,1748.45)">
                <path d="M821.645,1099.99L821.645,1114.3L836.059,1114.26L840.067,1110.11L840.102,1098.09L836.938,1098.16L840.067,1094.86L840.067,1089.12L832.333,1089.16L821.645,1099.99ZM827.622,1095.28L832.825,1090.14L839.259,1090.14L839.259,1094.15L834.794,1094.15L831.7,1097.39L831.805,1105.4L835.532,1105.4L835.567,1102.87L833.704,1102.84L833.704,1099.14L839.048,1099.14L839.083,1109.44L827.552,1109.44L827.622,1095.28Z" style="fill:rgb(249,129,58);fill-rule:nonzero;stroke:rgb(249,129,58);stroke-width:1px;stroke-linecap:butt;stroke-miterlimit:2;"/>
            </g>
            <g transform="matrix(0.192088,-0.981378,0.981378,0.192088,-409.888,1695.5)">
                <path d="M824.647,1076.59L824.647,1096.69L831.116,1096.69L832.944,1095.29L832.944,1096.73L838.85,1096.69L843.491,1092.69L843.491,1084.53L841.241,1082L843.491,1079.82L843.473,1071.51L829.639,1071.52L824.647,1076.59ZM842.471,1072.51L842.506,1079.19L839.764,1082.07L842.506,1085.02L842.506,1091.74L838.288,1091.63L838.288,1085.8L834.667,1082.28L834.702,1091.81L830.553,1091.86L830.378,1072.51L842.471,1072.51ZM838.288,1076.55L834.737,1076.52L834.772,1081.44L838.288,1078.62L838.288,1076.55Z" style="fill:rgb(249,129,58);fill-rule:nonzero;stroke:rgb(249,129,58);stroke-width:1px;stroke-linecap:butt;stroke-miterlimit:2;"/>
            </g>
            <g transform="matrix(0.223397,-0.974727,0.974727,0.223397,-408.056,1645.11)">
                <path d="M836.759,1053.37L828.058,1061.95L828.058,1078.67L832.927,1078.63L834.913,1076.72L834.984,1078.6L840.362,1078.63L845.038,1074.1L845.038,1053.34L836.759,1053.37ZM837.673,1054.46L844.019,1054.46L843.984,1073.24L839.87,1073.24L839.87,1068.07L836.46,1068.03L836.53,1073.24L832.47,1073.24L832.505,1059.63L837.673,1054.46ZM836.759,1061.62L836.759,1063.99L839.73,1063.96L839.8,1058.72L836.759,1061.62Z" style="fill:rgb(249,129,58);fill-rule:nonzero;stroke:rgb(249,129,58);stroke-width:1px;stroke-linecap:butt;stroke-miterlimit:2;"/>
            </g>
            <g transform="matrix(0.254477,-0.967079,0.967079,0.254477,-407.356,1596.85)">
                <path d="M836.879,1037.46C833.416,1040.64 831.693,1042.26 831.676,1042.31L831.676,1062.67L838.355,1062.63L843.207,1058.42L843.207,1054.44L850.519,1047.17L850.519,1037.5L836.879,1037.46ZM849.465,1038.52L849.605,1046.67L845.387,1050.82L841.695,1050.82L841.73,1057.75L837.512,1057.89L837.512,1038.52L849.465,1038.52ZM841.66,1042.63L841.66,1046.43L844.121,1046.39L845.176,1044.99L845.176,1042.63L841.66,1042.63Z" style="fill:rgb(249,129,58);fill-rule:nonzero;stroke:rgb(249,129,58);stroke-width:1px;stroke-linecap:butt;stroke-miterlimit:2;"/>
            </g>
            <g transform="matrix(0.287863,-0.957672,0.957672,0.287863,-404.938,1545.42)">
                <path d="M836.488,1024.88L836.488,1044.95L843.097,1044.99L845.699,1042.74L845.769,1042.74L845.804,1044.99L851.534,1044.99L855.964,1040.91L855.964,1019.85L849.777,1019.82L847.667,1021.86L847.597,1021.86L847.456,1019.82L841.409,1019.82L836.488,1024.88ZM846.577,1020.8L846.613,1028.43L850.656,1028.47L850.691,1020.77L854.945,1020.8L854.909,1040L850.691,1040L850.761,1032.4L846.718,1032.44L846.613,1040.03L842.324,1040.03L842.324,1020.84L846.577,1020.8Z" style="fill:rgb(249,129,58);fill-rule:nonzero;stroke:rgb(249,129,58);stroke-width:1px;stroke-linecap:butt;stroke-miterlimit:2;"/>
            </g>
            <g transform="matrix(0.314076,-0.949398,0.949398,0.314076,-397.113,1503.86)">
                <path d="M847.09,1001.51L842.028,1006.44L842.028,1026.79L848.707,1026.76L853.067,1022.61L853.067,1001.51L847.09,1001.51ZM852.082,1021.76L847.899,1021.84L847.969,1002.64L851.942,1002.57L852.082,1021.76Z" style="fill:rgb(249,129,58);fill-rule:nonzero;stroke:rgb(249,129,58);stroke-width:1px;stroke-linecap:butt;stroke-miterlimit:2;"/>
            </g>
            <g transform="matrix(0.33863,-0.940919,0.940919,0.33863,-397.363,1467.92)">
                <path d="M856.04,991.483L845.335,1002.12L845.405,1016.73L859.151,1016.62L863.089,1012.65L863.089,1006.72L856.426,1006.69L856.462,1001.42L859.538,1001.29L863.089,997.407L863.089,991.448L856.04,991.483ZM851.259,997.759C854.721,994.226 856.479,992.468 856.532,992.468L862.034,992.468L862.069,996.476L858.712,996.476L855.477,999.728L855.477,1007.78L862.104,1007.88L862.104,1011.91L851.294,1011.77L851.259,997.759Z" style="fill:rgb(249,129,58);fill-rule:nonzero;stroke:rgb(249,129,58);stroke-width:1px;stroke-linecap:butt;stroke-miterlimit:2;"/>
            </g>
            <g transform="matrix(0.389289,-0.921116,0.921116,0.389289,-388.569,1392.33)">
                <path d="M855.544,968.685L855.544,988.987C855.614,989.128 855.684,989.198 855.755,989.198L869.026,989.198L873.491,984.734L873.491,969.687L867.813,964.009L860.29,964.009L855.544,968.685ZM860.975,965.011L867.391,965.011L872.507,970.53L872.507,983.837L861.046,983.802L860.975,965.011ZM865.229,979.829L868.323,979.829L868.428,972.025L865.229,969.124L865.229,979.829Z" style="fill:rgb(249,129,58);fill-rule:nonzero;stroke:rgb(249,129,58);stroke-width:1px;stroke-linecap:butt;stroke-miterlimit:2;"/>
            </g>
            <g transform="matrix(0.419077,-0.907951,0.907951,0.419077,-382.474,1348.42)">
                <path d="M862.166,952.784L862.166,972.964C862.166,973.051 862.218,973.104 862.306,973.104L876.351,973.104L880.658,968.868L880.658,963.12L876.914,963.085L878.39,961.467L878.39,955.895L880.658,953.698L880.693,947.915L867.035,947.915L862.166,952.784ZM879.691,948.899L879.656,952.819L872.326,952.784L872.255,956.493L877.441,956.528L877.406,960.466L872.255,960.518L872.255,963.928L879.656,963.964L879.656,968.165L868.019,968.2L868.089,948.899L879.691,948.899Z" style="fill:rgb(249,129,58);fill-rule:nonzero;stroke:rgb(249,129,58);stroke-width:1px;stroke-linecap:butt;stroke-miterlimit:2;"/>
            </g>
            <g transform="matrix(0.448074,-0.893996,0.893996,0.448074,-375.278,1305.92)">
                <path d="M880.275,931.721L869.587,942.549L869.587,950.81L871.415,950.775L871.415,950.846L869.587,952.885L869.587,956.857L883.298,956.892L887.306,952.674L887.306,939.912L884.985,939.877L887.306,937.627L887.306,931.756L880.275,931.721ZM875.493,937.908L880.767,932.705L886.286,932.705L886.251,936.713L882.806,936.713L879.642,939.877L879.642,940.896L886.251,940.931L886.251,951.971L875.669,951.9L875.669,948.033L882.067,947.892L882.067,944.939L875.493,944.939L875.493,937.908Z" style="fill:rgb(249,129,58);fill-rule:nonzero;stroke:rgb(249,129,58);stroke-width:1px;stroke-linecap:butt;stroke-miterlimit:2;"/>
            </g>
            <g transform="matrix(0.470978,-0.882145,0.882145,0.470978,-366.392,1272.41)">
                <path d="M882.564,916.443L877.502,921.365L877.502,941.721L884.181,941.686L888.541,937.537L888.541,916.443L882.564,916.443ZM887.556,936.693L883.373,936.764L883.443,917.568L887.416,917.498L887.556,936.693Z" style="fill:rgb(249,129,58);fill-rule:nonzero;stroke:rgb(249,129,58);stroke-width:1px;stroke-linecap:butt;stroke-miterlimit:2;"/>
            </g>
            <g transform="matrix(0.493926,-0.869504,0.869504,0.493926,-363.94,1239.27)">
                <path d="M882.293,918.009L882.293,932.318L896.707,932.283L900.715,928.134L900.75,916.111L897.586,916.181L900.715,912.876L900.715,907.146L892.98,907.181L882.293,918.009ZM888.269,913.298L893.473,908.166L899.906,908.166L899.906,912.173L895.441,912.173L892.348,915.408L892.453,923.423L896.18,923.423L896.215,920.892L894.351,920.857L894.351,917.166L899.695,917.166L899.73,927.466L888.199,927.466L888.269,913.298Z" style="fill:rgb(249,129,58);fill-rule:nonzero;stroke:rgb(249,129,58);stroke-width:1px;stroke-linecap:butt;stroke-miterlimit:2;"/>
            </g>
            <g transform="matrix(0.523125,-0.852256,0.852256,0.523125,-356.213,1196.93)">
                <path d="M891.097,896.801L891.097,916.734L897.636,916.77L899.534,915.223L900.589,916.77L905.933,916.77L910.573,912.691L910.503,891.527L904.667,891.527L902.769,893.145L901.644,891.527L896.159,891.527L891.097,896.801ZM900.8,892.512L905.159,900.809L905.195,892.582L909.624,892.582L909.589,911.813L906.073,911.848L901.363,903.199L901.222,903.199L901.257,911.848L897.003,911.883L897.003,892.582L900.8,892.512Z" style="fill:rgb(249,129,58);fill-rule:nonzero;stroke:rgb(249,129,58);stroke-width:1px;stroke-linecap:butt;stroke-miterlimit:2;"/>
            </g>
        </g>
        <g transform="matrix(-1.01947,-1.7696,1.86891,-1.02506,636.23,3727.98)">
            <ellipse cx="1136.61" cy="862.555" rx="271.929" ry="270.459" style="fill:rgb(249,129,58);stroke:rgb(249,129,58);stroke-width:0.74px;"/>
        </g>
    </g>
</svg>
